HIERARCHY
ROOT Hips
{
    OFFSET   0.000000   0.000000   0.000000
    CHANNELS 6 Xposition Yposition Zposition Zrotation Xrotation Yrotation
    JOINT Chest
    {
        OFFSET   0.000000   8.007230   0.000000
        CHANNELS 3 Zrotation Xrotation Yrotation
        JOINT Chest2
        {
            OFFSET   0.000000  22.077100   0.000000
            CHANNELS 3 Zrotation Xrotation Yrotation
            JOINT Neck
            {
                OFFSET   0.000000  23.254700   0.000000
                CHANNELS 3 Zrotation Xrotation Yrotation
                JOINT Head
                {
                    OFFSET   0.000010  14.370000   1.956610
                    CHANNELS 3 Zrotation Xrotation Yrotation
                    End Site
                    {
                        OFFSET   0.000000  19.566000   0.000000
                    }
                }
            }
            JOINT LeftCollar
            {
                OFFSET   3.911900  19.017000  -0.467063
                CHANNELS 3 Zrotation Xrotation Yrotation
                JOINT LeftShoulder
                {
                    OFFSET  10.383700   0.000000   0.000000
                    CHANNELS 3 Zrotation Xrotation Yrotation
                    JOINT LeftElbow
                    {
                        OFFSET  26.662100   0.001671   0.000522
                        CHANNELS 3 Zrotation Xrotation Yrotation
                        JOINT LeftWrist
                        {
                            OFFSET  28.869000   0.000037  -0.000114
                            CHANNELS 3 Zrotation Xrotation Yrotation
                            JOINT LeftFinger0
                            {
                                OFFSET   2.044650  -2.323450   3.252850
                                CHANNELS 3 Zrotation Xrotation Yrotation
                                JOINT LeftFinger01
                                {
                                    OFFSET   3.088140   0.000000   0.000000
                                    CHANNELS 3 Zrotation Xrotation Yrotation
                                    JOINT LeftFinger02
                                    {
                                        OFFSET   2.639460   0.000000   0.000000
                                        CHANNELS 3 Zrotation Xrotation Yrotation
                                        End Site
                                        {
                                            OFFSET   2.582190   0.000000   0.000000
                                        }
                                    }
                                }
                            }
                            JOINT LeftFinger1
                            {
                                OFFSET   8.364480   0.000000   3.252850
                                CHANNELS 3 Zrotation Xrotation Yrotation
                                JOINT LeftFinger11
                                {
                                    OFFSET   4.646930   0.000000   0.000000
                                    CHANNELS 3 Zrotation Xrotation Yrotation
                                    JOINT LeftFinger12
                                    {
                                        OFFSET   2.323470   0.000000   0.000000
                                        CHANNELS 3 Zrotation Xrotation Yrotation
                                        End Site
                                        {
                                            OFFSET   2.273050   0.000000   0.000000
                                        }
                                    }
                                }
                            }
                            JOINT LeftFinger2
                            {
                                OFFSET   8.364490   0.000016   1.078090
                                CHANNELS 3 Zrotation Xrotation Yrotation
                                JOINT LeftFinger21
                                {
                                    OFFSET   5.111620   0.000000   0.000000
                                    CHANNELS 3 Zrotation Xrotation Yrotation
                                    JOINT LeftFinger22
                                    {
                                        OFFSET   2.788150   0.000013   0.000000
                                        CHANNELS 3 Zrotation Xrotation Yrotation
                                        End Site
                                        {
                                            OFFSET   2.727660   0.000000   0.000000
                                        }
                                    }
                                }
                            }
                            JOINT LeftFinger3
                            {
                                OFFSET   7.899780   0.000016  -1.078090
                                CHANNELS 3 Zrotation Xrotation Yrotation
                                JOINT LeftFinger31
                                {
                                    OFFSET   4.646930   0.000000   0.000000
                                    CHANNELS 3 Zrotation Xrotation Yrotation
                                    JOINT LeftFinger32
                                    {
                                        OFFSET   2.323470   0.000000   0.000000
                                        CHANNELS 3 Zrotation Xrotation Yrotation
                                        End Site
                                        {
                                            OFFSET   2.273050   0.000000   0.000000
                                        }
                                    }
                                }
                            }
                            JOINT LeftFinger4
                            {
                                OFFSET   7.435080   0.000000  -3.252850
                                CHANNELS 3 Zrotation Xrotation Yrotation
                                JOINT LeftFinger41
                                {
                                    OFFSET   3.717550   0.000000   0.000000
                                    CHANNELS 3 Zrotation Xrotation Yrotation
                                    JOINT LeftFinger42
                                    {
                                        OFFSET   1.858760   0.000000   0.000000
                                        CHANNELS 3 Zrotation Xrotation Yrotation
                                        End Site
                                        {
                                            OFFSET   1.818440   0.000000   0.000000
                                        }
                                    }
                                }
                            }
                        }
                    }
                }
            }
            JOINT RightCollar
            {
                OFFSET  -3.911900  19.017000  -0.467064
                CHANNELS 3 Zrotation Xrotation Yrotation
                JOINT RightShoulder
                {
                    OFFSET -10.383700   0.000000   0.000000
                    CHANNELS 3 Zrotation Xrotation Yrotation
                    JOINT RightElbow
                    {
                        OFFSET -26.662100   0.001633   0.000260
                        CHANNELS 3 Zrotation Xrotation Yrotation
                        JOINT RightWrist
                        {
                            OFFSET -28.869000  -0.000045  -0.000080
                            CHANNELS 3 Zrotation Xrotation Yrotation
                            JOINT RightFinger0
                            {
                                OFFSET  -2.044660  -2.323490   3.252850
                                CHANNELS 3 Zrotation Xrotation Yrotation
                                JOINT RightFinger01
                                {
                                    OFFSET  -3.088140   0.000000   0.000000
                                    CHANNELS 3 Zrotation Xrotation Yrotation
                                    JOINT RightFinger02
                                    {
                                        OFFSET  -2.639450   0.000000   0.000000
                                        CHANNELS 3 Zrotation Xrotation Yrotation
                                        End Site
                                        {
                                            OFFSET  -2.582190   0.000000   0.000000
                                        }
                                    }
                                }
                            }
                            JOINT RightFinger1
                            {
                                OFFSET  -8.364480   0.000000   3.252850
                                CHANNELS 3 Zrotation Xrotation Yrotation
                                JOINT RightFinger11
                                {
                                    OFFSET  -4.646920   0.000000   0.000000
                                    CHANNELS 3 Zrotation Xrotation Yrotation
                                    JOINT RightFinger12
                                    {
                                        OFFSET  -2.323470   0.000000   0.000000
                                        CHANNELS 3 Zrotation Xrotation Yrotation
                                        End Site
                                        {
                                            OFFSET  -2.273050   0.000000   0.000000
                                        }
                                    }
                                }
                            }
                            JOINT RightFinger2
                            {
                                OFFSET  -8.364480   0.000000   1.078090
                                CHANNELS 3 Zrotation Xrotation Yrotation
                                JOINT RightFinger21
                                {
                                    OFFSET  -5.111610   0.000000   0.000000
                                    CHANNELS 3 Zrotation Xrotation Yrotation
                                    JOINT RightFinger22
                                    {
                                        OFFSET  -2.788160   0.000000   0.000000
                                        CHANNELS 3 Zrotation Xrotation Yrotation
                                        End Site
                                        {
                                            OFFSET  -2.727660   0.000000   0.000000
                                        }
                                    }
                                }
                            }
                            JOINT RightFinger3
                            {
                                OFFSET  -7.899780   0.000000  -1.078090
                                CHANNELS 3 Zrotation Xrotation Yrotation
                                JOINT RightFinger31
                                {
                                    OFFSET  -4.646930   0.000000   0.000000
                                    CHANNELS 3 Zrotation Xrotation Yrotation
                                    JOINT RightFinger32
                                    {
                                        OFFSET  -2.323470   0.000000   0.000000
                                        CHANNELS 3 Zrotation Xrotation Yrotation
                                        End Site
                                        {
                                            OFFSET  -2.273050   0.000000   0.000000
                                        }
                                    }
                                }
                            }
                            JOINT RightFinger4
                            {
                                OFFSET  -7.435090   0.000000  -3.252850
                                CHANNELS 3 Zrotation Xrotation Yrotation
                                JOINT RightFinger41
                                {
                                    OFFSET  -3.717550   0.000000   0.000000
                                    CHANNELS 3 Zrotation Xrotation Yrotation
                                    JOINT RightFinger42
                                    {
                                        OFFSET  -1.858760   0.000000   0.000000
                                        CHANNELS 3 Zrotation Xrotation Yrotation
                                        End Site
                                        {
                                            OFFSET  -1.818440   0.000000   0.000000
                                        }
                                    }
                                }
                            }
                        }
                    }
                }
            }
        }
    }
    JOINT LeftHip
    {
        OFFSET   9.782990   0.000000   0.000000
        CHANNELS 3 Zrotation Xrotation Yrotation
        JOINT LeftKnee
        {
            OFFSET  -0.000063 -41.789100   0.001657
            CHANNELS 3 Zrotation Xrotation Yrotation
            JOINT LeftAnkle
            {
                OFFSET   0.000078 -41.133200  -0.000113
                CHANNELS 3 Zrotation Xrotation Yrotation
                JOINT LeftToe
                {
                    OFFSET   0.000000  -6.358970  14.674500
                    CHANNELS 3 Zrotation Xrotation Yrotation
                    End Site
                    {
                        OFFSET   0.000000   0.000000   3.913200
                    }
                }
            }
        }
    }
    JOINT RightHip
    {
        OFFSET  -9.782990   0.000000   0.000000
        CHANNELS 3 Zrotation Xrotation Yrotation
        JOINT RightKnee
        {
            OFFSET   0.000053 -41.789200   0.000277
            CHANNELS 3 Zrotation Xrotation Yrotation
            JOINT RightAnkle
            {
                OFFSET   0.000030 -41.133200  -0.000150
                CHANNELS 3 Zrotation Xrotation Yrotation
                JOINT RightToe
                {
                    OFFSET   0.000000  -6.358960  14.674500
                    CHANNELS 3 Zrotation Xrotation Yrotation
                    End Site
                    {
                        OFFSET   0.000000   0.000000   3.913200
                    }
                }
            }
        }
    }
}
MOTION
Frames: 5
Frame Time:   0.016667
  0.453579  89.443800   1.562860  -1.339630 -15.123700   3.750790   1.913380   8.327310   1.573710   3.651200  16.700400   2.909160   0.571052  -1.674960   0.014836   0.941445  -3.395650  11.412400  -5.354150  -2.743160  -2.111840 -56.211700   5.485530 -52.890200  19.513700 -21.253200 -64.732100  -3.991250 -44.472200  -0.370788  27.604200  40.858400 -67.908100 -61.140400  -0.006217   0.001002 -34.059600  -0.005861  -0.002945 -12.209500  -1.785340   8.189390 -10.093800  -0.002518  -0.002516  -7.065440   0.009049   0.000711 -88.987700  -8.379050   0.146069 -96.763200  -0.001768  -0.000702 -72.572400  -0.000085   0.004175 -88.983700  -8.379040   0.146068 -95.096900   0.000075  -0.001341 -71.322600   0.000148   0.002409 -85.486700  -9.978000   0.785027 -110.000000  -0.001687   0.003656 -80.000000   0.000000   0.000000   5.498250  -2.819570  10.844800  34.122800  -6.052710  55.009300 -44.150500 -31.573500  69.142400 -21.946400   6.773000  20.573500 -25.667000  48.642200  56.466100  70.091500  -0.000968   0.002722  40.021000   0.000226   0.000439   8.113600   3.976780  25.939000   7.387690   0.003843  -0.001484   5.171380   0.004335  -0.001961  88.705800  -0.001694  -0.000134  88.681200  -0.001470  -0.000240  66.510800   0.002003   0.001163  88.995200  -4.998570  -0.085758  89.774300   0.006782   0.008295  67.330700   0.002656   0.003244  88.984700  -9.997730  -0.176314 110.000000  -0.005926  -0.005910  80.000000  -0.000251   0.004931   2.625460  17.811000   4.535480   1.323850   0.042536   3.789280  -1.865070  -3.754110   0.308325  -0.000000   0.000000   0.000000   3.438550  18.582100   0.310463   0.089024   1.359020  -9.215120  -1.109170  -6.125890  -2.764550  -0.000000   0.000000   0.000000
  0.448761  89.443600   1.585430  -1.360730 -15.092600   3.645700   1.943590   8.292730   1.518390   3.721500  16.630300   2.793030   0.588966  -1.750910   0.015013   0.970082  -3.549860  11.287800  -5.372500  -2.694860  -2.077210 -56.365900   5.256440 -52.845200  19.556200 -21.331100 -64.586400  -3.898440 -44.440900  -0.299705  27.511800  40.748900 -67.787300 -61.281000  -0.006182   0.001012 -34.153200  -0.005799  -0.002930 -12.299800  -1.803990   8.215580 -10.169400  -0.002527  -0.002568  -7.118630   0.009086   0.000671 -88.987500  -8.408440   0.146394 -96.801500  -0.001790  -0.000716 -72.601100  -0.000089   0.004156 -88.983300  -8.408450   0.146398 -95.072300   0.000085  -0.001334 -71.304200   0.000168   0.002408 -85.456900  -9.977890   0.791281 -110.000000  -0.001696   0.003604 -80.000000   0.000000   0.000000   5.490530  -2.749660  10.850900  34.392100  -6.358440  54.981200 -44.324900 -31.961700  69.242000 -21.957000   6.799300  20.574400 -25.752000  48.639800  56.704300  70.016100  -0.000992   0.002611  39.970800   0.000194   0.000375   8.187560   3.998210  25.852400   7.449550   0.003869  -0.001436   5.214680   0.004333  -0.001920  88.394700  -0.001660  -0.000116  88.382200  -0.001437  -0.000230  66.286600   0.001970   0.001155  88.995200  -4.998570  -0.085739  89.654400   0.006896   0.008375  67.240900   0.002652   0.003190  88.984700  -9.997720  -0.176317 110.000000  -0.005977  -0.005912  80.000000  -0.000226   0.004873   2.617990  17.795400   4.544140   1.320120   0.083222   3.858350  -1.863710  -3.800710   0.332537  -0.000000   0.000000  -0.000000   3.428480  18.564500   0.333476   0.081648   1.356210  -9.184010  -1.099070  -6.132050  -2.712740  -0.000000   0.000000   0.000000
  0.443503  89.443300   1.607050  -1.384410 -15.061600   3.537610   1.972390   8.260680   1.466240   3.788340  16.565200   2.683520   0.609467  -1.823590   0.015203   1.004080  -3.697010  11.155500  -5.386320  -2.662070  -2.039750 -56.485800   5.057240 -52.790300  19.588400 -21.423600 -64.466700  -3.860040 -44.499600  -0.262930  27.456200  40.678200 -67.713500 -61.397600  -0.006148   0.001019 -34.230800  -0.005732  -0.002927 -12.403400  -1.820830   8.221750 -10.255400  -0.002536  -0.002613  -7.178770   0.009125   0.000630 -88.987300  -8.417420   0.146719 -96.846200  -0.001808  -0.000737 -72.634600  -0.000083   0.004138 -88.983000  -8.417420   0.146721 -95.130800   0.000098  -0.001334 -71.348100   0.000186   0.002399 -85.453100  -9.977780   0.790958 -110.000000  -0.001707   0.003546 -80.000000   0.000000   0.000000   5.487300  -2.694710  10.857200  34.626800  -6.630970  54.965200 -44.464500 -32.292300  69.308900 -21.974100   6.837990  20.603700 -25.695500  48.451700  56.681100  70.004700  -0.001027   0.002688  39.963200   0.000155   0.000305   8.246660   4.005690  25.732200   7.495660   0.003884  -0.001391   5.246950   0.004340  -0.001873  88.126100  -0.001634  -0.000094  88.116600  -0.001424  -0.000221  66.087400   0.001942   0.001135  88.995200  -4.998570  -0.085733  89.525400   0.007003   0.008455  67.144100   0.002648   0.003138  88.984700  -9.997720  -0.176320 110.000000  -0.006026  -0.005913  80.000000  -0.000207   0.004815   2.609280  17.813600   4.560340   1.316660   0.055582   3.928130  -1.860720  -3.814020   0.354232   0.000000   0.000000  -0.000000   3.417020  18.551400   0.363861   0.078694   1.343550  -9.150370  -1.090860  -6.132040  -2.667530   0.000000   0.000000  -0.000000
  0.438319  89.443000   1.628370  -1.409790 -15.032500   3.425430   2.000310   8.230970   1.417780   3.852720  16.504800   2.581660   0.630022  -1.890520   0.015384   1.038330  -3.832410  11.022100  -5.396850  -2.639110  -2.002210 -56.592800   4.878780 -52.723400  19.594500 -21.503300 -64.382600  -3.788130 -44.698200  -0.198972  27.430100  40.643500 -67.678600 -61.499600  -0.006114   0.001030 -34.298700  -0.005665  -0.002925 -12.518800  -1.840180   8.229670 -10.351200  -0.002545  -0.002658  -7.245810   0.009163   0.000588 -88.987100  -8.429540   0.147048 -96.874200  -0.001827  -0.000756 -72.655700  -0.000073   0.004122 -88.982700  -8.429540   0.147048 -95.252300   0.000111  -0.001333 -71.439200   0.000205   0.002392 -85.453000  -9.977680   0.788769 -110.000000  -0.001719   0.003489 -80.000000   0.000000   0.000000   5.485570  -2.651790  10.863600  34.847000  -6.882720  54.956200 -44.548300 -32.555600  69.385000 -21.986000   6.862940  20.643400 -25.523900  48.188700  56.566700  70.003000  -0.001061   0.002836  39.962100   0.000110   0.000236   8.301770   4.012130  25.616500   7.538560   0.003898  -0.001347   5.276980   0.004353  -0.001826  87.903800  -0.001610  -0.000067  87.903800  -0.001414  -0.000211  65.927800   0.001912   0.001115  88.995200  -4.998560  -0.085726  89.421400   0.007107   0.008540  67.066100   0.002644   0.003086  88.984700  -9.997720  -0.176322 110.000000  -0.006075  -0.005914  80.000000  -0.000187   0.004760   2.602330  17.831800   4.576100   1.311480   0.027947   3.999630  -1.857580  -3.826720   0.377916   0.000000   0.000000   0.000000   3.405010  18.539200   0.399357   0.076287   1.334220  -9.116640  -1.083170  -6.132030  -2.623800  -0.000000   0.000000  -0.000000
  0.434105  89.442700   1.650220  -1.436970 -15.007100   3.305120   2.027650   8.203550   1.374310   3.915070  16.449100   2.490040   0.648348  -1.947990   0.015553   1.068860  -3.948800  10.894900  -5.404040  -2.623500  -1.965210 -56.716100   4.712240 -52.631000  19.577800 -21.548500 -64.367800  -3.545180 -45.092600  -0.032060  27.426900  40.654700 -67.681400 -61.533600  -0.006076   0.001056 -34.321300  -0.005602  -0.002914 -12.633800  -1.863810   8.256040 -10.447100  -0.002550  -0.002710  -7.312960   0.009195   0.000548 -88.986900  -8.460830   0.147380 -96.850200  -0.001858  -0.000763 -72.637600  -0.000070   0.004109 -88.982400  -8.460830   0.147383 -95.400200   0.000126  -0.001318 -71.550200   0.000232   0.002392 -85.470000  -9.977590   0.784904 -110.000000  -0.001735   0.003439 -80.000000   0.000000   0.000000   5.482300  -2.621240  10.869100  35.076300  -7.127590  54.953900 -44.521400 -32.726000  69.525400 -21.941900   6.748620  20.646400 -25.298400  47.897000  56.459900  70.071900  -0.001085   0.003016  40.008000   0.000043   0.000174   8.364550   4.025260  25.510400   7.589090   0.003916  -0.001300   5.312360   0.004363  -0.001780  87.781500  -0.001583  -0.000026  87.782400  -0.001398  -0.000194  65.836700   0.001875   0.001104  88.995200  -4.998560  -0.085702  89.383900   0.007208   0.008638  67.038000   0.002639   0.003037  88.984700  -9.997710  -0.176315 110.000000  -0.006125  -0.005921  80.000000  -0.000152   0.004713   2.599560  17.827100   4.584290   1.303290   0.059781   4.074980  -1.856130  -3.870310   0.409412  -0.000000   0.000000   0.000000   3.390940  18.524600   0.444069   0.075034   1.334220  -9.087720  -1.075350  -6.136310  -2.577300  -0.000000   0.000000  -0.000000
